<svg width="679" height="682" viewBox="0 0 679 682" fill="none" xmlns="http://www.w3.org/2000/svg">
<ellipse cx="95.2353" cy="419.009" rx="33" ry="33.4775" transform="rotate(-112.342 95.2353 419.009)" fill="#18181C"/>
<g clip-path="url(#clip0_41_86)">
<g clip-path="url(#clip1_41_86)">
<path d="M93.2177 430.704L90.0685 423.041L90.6813 422.789L93.543 429.752L98.1877 427.843L95.4958 421.294L96.1086 421.042L98.8005 427.591L103.897 425.497L100.996 418.439L101.609 418.187L104.797 425.945L93.2177 430.704ZM89.781 422.342L89.4412 421.515L93.0478 415.796L86.4488 414.234L77.9333 411.862L93.4262 415.157L97.61 408.458L97.9628 409.316L94.1252 415.39L101.138 417.042L101.478 417.869L93.779 416.016L89.781 422.342ZM86.5128 412.647L85.9 412.899L82.3065 404.155L82.9193 403.903L84.5789 407.941L95.5454 403.434L95.8329 404.134L84.8663 408.641L86.5128 412.647ZM97.164 440.306L96.8112 439.447L110.14 419.772L105.463 427.566L97.7343 439.216L108.456 434.847L108.743 435.546L97.164 440.306ZM93.1056 399.791C93.0403 399.632 92.9043 399.577 92.743 399.643C92.5817 399.709 92.5242 399.844 92.5895 400.003C92.6549 400.162 92.7908 400.218 92.9521 400.152C93.1134 400.085 93.1579 399.918 93.1056 399.791ZM92.1408 399.37C92.5601 399.198 92.7197 398.761 92.5368 398.315C92.3407 397.838 91.9328 397.672 91.4168 397.884L89.6428 398.613L89.7996 398.994L91.5736 398.265C91.8639 398.146 92.0452 398.22 92.1497 398.474C92.2412 398.697 92.1775 398.909 91.9517 399.002L92.1085 399.383L92.1408 399.37ZM91.2853 397.38C91.7238 397.163 91.8703 396.694 91.6351 396.122C91.3999 395.549 90.9528 395.287 90.469 395.486C90.0819 395.645 89.9799 395.947 90.0469 396.477L90.1 396.79C90.1661 397.134 90.0894 397.314 89.9281 397.381C89.7023 397.473 89.4626 397.349 89.332 397.031C89.2144 396.745 89.265 396.501 89.5099 396.363L89.3531 395.982C88.9469 396.186 88.8004 396.655 89.0094 397.164C89.2316 397.704 89.6656 397.934 90.1172 397.749C90.472 397.603 90.6193 397.32 90.5332 396.835L90.467 396.49C90.4008 396.146 90.4645 395.934 90.658 395.854C90.8838 395.761 91.1366 395.918 91.2672 396.236C91.3979 396.554 91.3412 396.874 91.1285 396.999L91.2853 397.38Z" fill="white"/>
</g>
</g>
<ellipse cx="160.202" cy="274.7" rx="33" ry="33.4775" transform="rotate(-75 160.202 274.7)" fill="#18181C"/>
<ellipse cx="160.202" cy="274.7" rx="33" ry="33.4775" transform="rotate(-75 160.202 274.7)" fill="#18181C"/>
<g clip-path="url(#clip2_41_86)">
<path d="M153.201 255.468L140.653 267.798C139.872 268.579 139.55 269.781 139.834 270.855L144.493 287.964C144.794 289.066 145.659 290.02 146.777 290.32L164.003 294.936C165.121 295.235 166.352 294.824 167.167 294.02L170.467 290.714C171.902 289.096 172.079 288.435 172.307 287.585C173.048 284.818 171.774 282.783 168.814 281.99L151.807 277.433C151.566 277.368 151.176 277.396 151.114 277.628L150.613 279.495C150.55 279.732 150.766 280.357 151.005 280.421L168.013 284.978C169.325 285.33 170.317 286.85 168.622 288.739L165.177 292.146C165.062 292.266 164.88 292.324 164.715 292.28L147.489 287.664C147.326 287.62 147.213 287.392 147.167 287.228L142.51 270.171C142.467 270.012 142.522 269.809 142.638 269.693L155.15 257.429C155.272 257.312 155.417 257.404 155.585 257.449L172.811 262.065C172.976 262.109 173.152 262.091 173.194 262.25L177.887 279.196C177.93 279.342 177.888 279.498 177.775 279.615L174.495 282.76C174.398 282.856 174.339 282.984 174.371 283.109C174.692 284.314 174.72 284.528 174.802 285.6C174.823 285.864 174.875 286.259 175.488 285.638L179.754 281.515C180.154 281.119 180.441 280.626 180.587 280.084C180.733 279.539 180.732 278.967 180.582 278.422L175.87 261.542C175.562 260.438 174.641 259.707 173.523 259.408L156.296 254.792C155.178 254.492 154.015 254.665 153.201 255.468ZM167.316 271.656C166.272 275.549 164.953 276.115 162.912 275.875C162.692 275.851 162.391 275.96 162.334 276.172L161.825 278.075C161.762 278.311 162 278.578 162.238 278.641C164.753 279.315 168.161 278.784 169.887 272.344C171.136 267.683 170.014 264.518 166.763 263.647C163.538 262.783 162.117 264.703 160.299 269.061C158.461 273.467 158.028 273.848 156.942 273.557C156.046 273.317 154.957 272.604 155.864 269.22C156.674 266.197 157.631 265.259 159.821 265.355C160.026 265.368 160.212 265.23 160.265 265.032L160.777 263.122C160.809 263.004 160.79 262.879 160.727 262.774C160.657 262.67 160.553 262.597 160.427 262.574C156.788 261.916 154.505 263.803 153.241 268.518C152.118 272.712 153.244 275.695 156.256 276.502C159.522 277.378 161.092 275.13 162.575 271.213C164.344 266.525 165.159 266.341 166.12 266.599C167.789 267.046 168.146 268.558 167.316 271.656Z" fill="#83CD29"/>
</g>
<ellipse cx="328.387" cy="209.481" rx="33" ry="33.4775" transform="rotate(-3.20833 328.387 209.481)" fill="#18181C"/>
<ellipse cx="328.387" cy="209.481" rx="33" ry="33.4775" transform="rotate(-3.20833 328.387 209.481)" fill="#18181C"/>
<path d="M328.668 213.254C330.725 213.138 332.297 211.354 332.18 209.268C332.063 207.182 330.301 205.584 328.245 205.7C326.189 205.815 324.617 207.599 324.734 209.685C324.851 211.771 326.612 213.369 328.668 213.254Z" fill="#61DAFB"/>
<path d="M342.249 202.455C341.515 202.231 340.749 202.008 339.953 201.82C340.104 201.013 340.223 200.209 340.311 199.44C340.751 195.028 339.827 191.989 337.67 190.913C337.029 190.584 336.334 190.457 335.55 190.5C333.264 190.629 330.454 192.514 327.677 195.562C324.576 192.844 321.573 191.284 319.286 191.412C318.503 191.456 317.826 191.66 317.226 192.059C315.205 193.402 314.626 196.526 315.555 200.827C315.729 201.582 315.936 202.368 316.177 203.152C315.406 203.428 314.668 203.702 313.966 204.041C309.973 205.86 307.875 208.171 308.012 210.623C308.15 213.074 310.526 215.135 314.665 216.498C315.398 216.723 316.164 216.946 316.961 217.134C316.809 217.94 316.691 218.744 316.603 219.513C316.162 223.925 317.086 226.964 319.243 228.04C319.884 228.37 320.579 228.497 321.363 228.453C323.682 228.323 326.492 226.437 329.237 223.392C332.337 226.109 335.341 227.669 337.627 227.541C338.411 227.497 339.087 227.293 339.687 226.894C341.709 225.551 342.287 222.428 341.358 218.126C341.185 217.371 340.977 216.585 340.736 215.801C341.507 215.525 342.245 215.251 342.947 214.913C346.94 213.094 349.038 210.782 348.901 208.331C348.764 205.879 346.42 203.817 342.249 202.455ZM336.849 192.621C338.232 193.341 338.827 195.767 338.467 199.277C338.408 199.979 338.285 200.717 338.132 201.49C336.412 201.187 334.601 201.023 332.697 200.963C331.497 199.435 330.275 198.075 329.059 196.847C331.34 194.293 333.697 192.499 335.689 192.387C336.114 192.363 336.511 192.441 336.849 192.621ZM334.292 212.473C333.764 213.566 333.137 214.665 332.478 215.765C331.276 215.932 330.069 216.033 328.828 216.103C327.554 216.174 326.344 216.209 325.163 216.175C324.385 215.155 323.672 214.132 323.025 213.105C322.343 212.046 321.692 210.953 321.108 209.889C321.57 208.766 322.094 207.607 322.654 206.478C323.182 205.385 323.808 204.287 324.467 203.186C325.67 203.019 326.877 202.918 328.118 202.849C329.392 202.777 330.602 202.743 331.783 202.776C332.561 203.796 333.274 204.82 333.921 205.847C334.603 206.905 335.254 207.999 335.837 209.063C335.344 210.187 334.85 211.312 334.292 212.473ZM336.942 211.228C337.497 212.36 337.952 213.464 338.374 214.571C337.278 214.898 336.114 215.163 334.882 215.398C335.239 214.746 335.626 214.06 335.946 213.344C336.299 212.626 336.62 211.911 336.942 211.228ZM329.084 220.675C328.252 219.858 327.449 218.972 326.677 218.051C327.43 218.042 328.183 218.033 328.934 217.991C329.685 217.949 330.434 217.874 331.184 217.799C330.519 218.8 329.82 219.77 329.084 220.675ZM322.731 216.046C321.481 215.95 320.294 215.817 319.169 215.614C319.467 214.501 319.794 213.319 320.219 212.132C320.615 212.774 321.013 213.45 321.442 214.091C321.875 214.798 322.302 215.405 322.731 216.046ZM319.972 207.726C319.417 206.593 318.962 205.489 318.539 204.383C319.635 204.055 320.799 203.791 322.031 203.555C321.674 204.207 321.287 204.893 320.967 205.609C320.614 206.327 320.294 207.043 319.972 207.726ZM327.829 198.278C328.661 199.096 329.464 199.981 330.236 200.902C329.483 200.911 328.73 200.92 327.979 200.962C327.228 201.004 326.479 201.079 325.73 201.155C326.394 200.153 327.093 199.184 327.829 198.278ZM335.469 204.829L334.182 202.907C335.432 203.004 336.619 203.136 337.744 203.339C337.446 204.453 337.12 205.634 336.695 206.821C336.296 206.146 335.898 205.47 335.469 204.829ZM317.369 200.46C316.619 197.012 316.939 194.535 318.233 193.665C318.549 193.448 318.935 193.326 319.36 193.302C321.319 193.193 323.86 194.679 326.446 196.993C325.374 198.316 324.313 199.838 323.291 201.491C321.406 201.762 319.627 202.161 317.949 202.621C317.71 201.87 317.539 201.148 317.369 200.46ZM309.841 210.52C309.754 208.963 311.523 207.202 314.72 205.793C315.358 205.491 316.064 205.219 316.771 204.98C317.386 206.607 318.138 208.327 319.02 210.039C318.335 211.839 317.745 213.6 317.348 215.284C312.767 214.211 309.945 212.375 309.841 210.52ZM320.064 226.332C318.681 225.612 318.086 223.186 318.446 219.676C318.505 218.975 318.628 218.237 318.781 217.464C320.502 217.766 322.313 217.93 324.216 217.99C325.416 219.518 326.639 220.879 327.854 222.107C325.573 224.661 323.216 226.455 321.224 226.566C320.8 226.59 320.402 226.513 320.064 226.332ZM339.544 218.493C340.294 221.941 339.974 224.418 338.68 225.289C338.364 225.506 337.978 225.627 337.554 225.651C335.594 225.761 333.054 224.275 330.467 221.96C331.539 220.637 332.601 219.115 333.622 217.463C335.507 217.191 337.286 216.792 338.964 216.332C339.203 217.083 339.374 217.805 339.544 218.493ZM342.194 213.16C341.555 213.462 340.85 213.734 340.142 213.973C339.527 212.346 338.775 210.626 337.893 208.914C338.579 207.115 339.168 205.353 339.565 203.669C344.146 204.742 346.968 206.578 347.072 208.433C347.159 209.99 345.358 211.753 342.194 213.16Z" fill="#61DAFB"/>
<ellipse cx="594.983" cy="312.943" rx="33" ry="33.4775" transform="rotate(85.0966 594.983 312.943)" fill="#18181C"/>
<ellipse cx="594.983" cy="312.943" rx="33" ry="33.4775" transform="rotate(85.0966 594.983 312.943)" fill="#18181C"/>
<g clip-path="url(#clip3_41_86)">
<g clip-path="url(#clip4_41_86)">
<path d="M587.131 308.033C587.131 308.033 586.027 306.483 585.942 309.307C585.84 312.729 586.045 314.456 587.081 318.127C587.081 318.127 586.542 319.163 586.118 320.58C581.763 312.522 584.704 301.62 587.131 308.033ZM591.791 306.603C591.791 306.603 590.259 304.889 590.205 307.713C590.136 311.364 590.35 314.225 591.741 319.089C591.741 319.089 591.096 319.832 590.804 320.94C586.934 311.079 588.733 299.573 591.791 306.603Z" fill="#0074BD"/>
<path d="M600.586 314.533C598.354 316.803 595.964 314.385 595.964 314.385C595.964 314.385 599.155 319.386 602.384 316.687C605.393 314.166 606.835 312.307 613.12 321.16C613.12 321.16 608.158 306.843 600.586 314.533Z" fill="#EA2D2E"/>
<path d="M585.22 327.003C585.22 327.003 584.313 328.298 583.314 325.825C581.415 321.122 579.657 305.884 581.165 301.481C581.708 299.899 582.887 302.678 583.161 303.561C583.448 304.481 583.456 305.02 583.456 305.02C584.522 303.22 580.135 294.26 579.642 300.606C578.3 317.91 583.574 331.602 585.22 327.003ZM596.867 307.99C596.867 307.99 594.328 300.381 594.078 305.458C593.972 307.602 594.4 311.819 595.073 315.727C595.623 318.919 596.485 322.096 596.485 322.096C596.485 322.096 595.895 321.005 595.257 320.234C592.474 312.523 592.147 297.197 594.676 301.4C596.815 304.954 596.867 307.99 596.867 307.99ZM590.159 322.606C595.075 330.265 598.819 326.208 598.05 323.666C597.862 323.044 597.721 322.77 597.721 322.77C597.721 322.77 598.116 322.974 598.316 323.409C600.581 328.374 593.707 332.931 589.931 322.465C589.932 322.464 590.055 322.578 590.159 322.606Z" fill="#0074BD"/>
<path d="M621.52 315.045C621.52 315.045 617.392 319.873 609.719 311.813C603.563 305.349 600.852 310.979 597.364 312.87C600.725 308.5 603.735 305.248 606.944 306.981C611.655 309.526 614.513 317.451 621.52 315.045Z" fill="#EA2D2E"/>
<path d="M577.572 310.44C577.733 318.18 579.525 329.938 583.244 329.901C583.244 329.901 581.797 329.483 580.186 323.754C578.367 317.29 577.818 309.172 578.211 304.296C578.211 304.296 577.468 305.352 577.572 310.44Z" fill="#0074BD"/>
</g>
</g>
<ellipse cx="496.641" cy="437.733" rx="33" ry="33.4775" transform="rotate(75 496.641 437.733)" fill="#18181C"/>
<ellipse cx="496.641" cy="437.733" rx="33" ry="33.4775" transform="rotate(75 496.641 437.733)" fill="#18181C"/>
<g clip-path="url(#clip5_41_86)">
<path d="M490.332 459.739C489.784 457.443 489.103 455.76 488.068 454.443C487.774 454.069 487.588 453.395 487.032 453.47C486.847 453.769 486.488 453.904 486.233 454.17C485.746 454.681 485.124 455.491 484.858 456.136C484.567 456.841 484.25 457.572 484.03 458.302C483.639 459.602 483.579 460.953 483.176 462.211C482.938 462.953 482.593 463.719 482.299 464.46C482.153 464.826 481.855 465.126 481.819 465.561L481.884 465.543C482.098 465.262 482.453 465.109 482.683 464.843L483.312 463.771C484.2 462.651 484.894 461.344 485.405 460.016C485.813 458.957 486.154 456.74 487.1 456.09L487.149 456.008C487.389 456.617 487.817 457.291 488.13 457.828C488.656 458.732 488.821 459.621 489.354 460.556L490.113 461.81L490.375 461.74C490.768 461.09 491.372 460.54 491.702 459.857C492.567 458.07 493.394 456.152 494.002 454.242C494.338 453.182 494.415 451.964 494.649 450.874C494.728 450.507 494.662 449.918 494.88 449.631C495.396 448.953 496.147 448.458 496.802 447.867C498.173 446.628 499.694 445.364 501.172 444.196C502.181 443.399 503.218 442.777 504.077 441.89C508.195 437.633 510.308 433.674 511.905 427.988C512.244 426.779 512.151 425.456 512.116 424.042C511.968 423.319 511.821 422.594 511.675 421.87C511.742 421.385 512.161 420.788 512.313 420.31C512.919 418.406 514.068 413.63 510.767 413.225C508.683 412.969 507.358 415.356 506.586 416.289C506.046 416.944 505.46 417.754 504.8 418.296C504.366 418.652 503.88 418.823 503.409 419.155C502.248 419.97 500.957 420.755 499.931 421.683C499.411 422.153 498.868 422.662 498.434 423.195C498.168 423.522 498.132 423.971 497.639 424.172C496.964 423.924 496.076 424.138 495.297 424.106C491.786 423.961 487.863 425.422 485.861 427.537C485.245 428.186 483.952 429.673 484.95 430.975C485.822 432.113 487.385 431.388 488.93 431.367C489.28 431.362 489.507 431.246 489.77 431.35L489.705 431.367L487.651 433.168C486.472 434.409 485.409 436.335 484.762 437.9C484.427 438.711 483.678 439.48 483.609 440.431L483.675 440.413L483.658 440.349C483.879 440.109 483.919 439.815 484.075 439.542C484.444 438.9 484.92 438.168 485.385 437.595C486.695 435.978 488.195 434.458 489.792 433.011C490.555 432.32 491.425 431.664 492.223 431.04C492.53 430.8 493.056 430.661 493.153 430.305C492.381 430.063 491.682 429.588 490.817 429.473C489.433 429.288 487.897 429.628 486.271 429.858C486.199 429.755 486.241 429.798 486.17 429.746C486.149 428.784 487.007 428.215 487.725 427.662C489.543 426.267 492.792 425.227 495.346 425.343C496.007 425.373 498.158 425.732 498.626 425.227C499.142 424.908 499.318 424.265 499.663 423.839C500.09 423.311 500.685 422.74 501.226 422.308C502.633 421.187 504.336 420.384 505.752 419.221C506.428 418.665 507.05 417.866 507.604 417.197C508.219 416.457 508.617 415.705 509.423 415.043C509.709 414.808 510.177 414.467 510.571 414.596C510.816 414.606 510.937 414.679 511.07 414.88C511.464 415.177 511.353 416.328 511.293 416.763C511.134 417.92 510.949 418.899 510.593 419.938C510.422 420.436 509.987 421.011 509.972 421.562L510.128 422.145C510.16 423.114 510.581 424.096 510.546 425.019C510.486 426.65 510.125 428.193 509.668 429.629C508.276 434.004 505.69 437.97 502.187 441.147C501.623 441.658 501.038 441.971 500.424 442.452C499.185 443.424 497.947 444.562 496.738 445.523C495.532 446.481 494.309 447.428 493.398 448.571C492.919 449.171 493.055 450.958 492.93 451.821C492.843 452.425 492.839 453.378 492.663 453.976C492.325 455.117 491.866 456.259 491.455 457.355C491.249 457.902 490.907 459.509 490.332 459.739ZM507.613 424.069C507.495 423.591 507.343 423.272 507.17 422.937L507.104 422.955L507.121 423.02C506.71 423.373 506.512 423.855 506.181 424.244C505.778 424.583 505.376 424.922 504.974 425.262L505.057 425.309C505.452 425.633 505.959 425.694 506.659 425.504C506.788 425.297 506.996 425.216 507.164 425.022C507.387 424.764 507.447 424.364 507.613 424.069Z" fill="#00618A"/>
</g>
<ellipse cx="328.387" cy="465.561" rx="33" ry="33.4775" transform="rotate(180 328.387 465.561)" fill="#18181C"/>
<ellipse cx="328.387" cy="465.561" rx="33" ry="33.4775" transform="rotate(180 328.387 465.561)" fill="#18181C"/>
<path d="M309.514 477.848L327.249 488.105C327.543 488.29 327.947 488.364 328.387 488.364C328.828 488.364 329.232 488.253 329.525 488.105L347.15 477.811C347.775 477.442 348.215 476.519 348.215 475.818L348.215 455.266C348.215 454.86 348.142 454.38 347.848 453.974L308.633 476.851C308.853 477.294 309.183 477.626 309.514 477.848Z" fill="#9B4F96"/>
<path d="M347.958 454.011C347.775 453.716 347.518 453.458 347.261 453.31L329.562 443.015C329.268 442.831 328.865 442.757 328.424 442.757C327.983 442.757 327.579 442.868 327.286 443.015L309.661 453.31C309.036 453.679 308.596 454.602 308.596 455.303L308.596 475.855C308.596 476.187 308.632 476.556 308.816 476.888L347.958 454.011Z" fill="#68217A"/>
<path d="M320.566 461.096C322.108 458.365 325.046 456.52 328.387 456.52C333.344 456.52 337.383 460.579 337.383 465.56C337.383 470.542 333.344 474.601 328.387 474.601C325.046 474.601 322.108 472.756 320.566 469.988L315.793 472.756C318.29 477.147 322.99 480.135 328.387 480.135C336.392 480.135 342.891 473.604 342.891 465.56C342.891 457.517 336.392 450.985 328.387 450.985C323.026 450.985 318.326 453.937 315.829 458.291L320.566 461.096ZM316.27 464.749L315.94 466.335L317.482 466.335L317.482 468.07L315.609 468.07L315.168 470.357L313.369 470.357L313.81 468.106L312.415 468.106L311.974 470.357L310.211 470.357L310.652 468.106L309.771 468.106L309.771 466.372L310.983 466.372L311.313 464.786L309.771 464.786L309.771 463.051L311.643 463.051L312.084 460.837L313.883 460.837L313.443 463.051L314.838 463.051L315.279 460.837L317.041 460.837L316.6 463.051L317.482 463.051L317.482 464.786L316.27 464.786L316.27 464.749ZM314.508 464.749L313.112 464.749L312.782 466.335L314.177 466.335L314.508 464.749Z" fill="white"/>
<ellipse cx="176.605" cy="637.878" rx="33" ry="33.4775" transform="rotate(-157.925 176.605 637.878)" fill="#18181C"/>
<g clip-path="url(#clip6_41_86)">
<g clip-path="url(#clip7_41_86)">
<path d="M168.348 658.228L189.958 659.144L197.15 632.845L184.834 617.518L165.192 620.024L152.035 643.903L168.348 658.228Z" fill="#B3B3B3"/>
<path d="M154.506 643.217L169.258 656.112L184.039 619.664L166.385 621.906L154.506 643.217Z" fill="#A6120D"/>
<path d="M188.423 656.847L194.966 633.372L184.039 619.664L169.258 656.112L188.423 656.847Z" fill="#DD1B16"/>
<path d="M172.403 634.793L178.035 634.468L183.013 636.487L187.762 631.498L192.147 633.181L169.794 654.788L172.403 634.793ZM172.402 636.107L173.188 646.33L180.052 639.38L176.61 637.983L172.402 636.107Z" fill="#F2F2F2"/>
<path d="M169.794 654.788L173.188 646.33L172.639 636.366L176.604 637.974L178.033 634.474L172.553 632.245L172.433 625.186L168.3 623.418L169.794 654.788Z" fill="#B3B3B3"/>
</g>
</g>
<ellipse cx="481.985" cy="122.782" rx="33" ry="33.4775" transform="rotate(30 481.985 122.782)" fill="#18181C"/>
<ellipse cx="481.985" cy="122.782" rx="33" ry="33.4775" transform="rotate(30 481.985 122.782)" fill="#18181C"/>
<g clip-path="url(#clip8_41_86)">
<path d="M469.666 121.269L469.148 120.97L470.885 117.961C471.022 117.724 471.204 117.443 471.429 117.118L471.417 117.111C471.253 117.283 471.125 117.402 471.035 117.469L467.54 120.042L467.288 119.896L467.752 115.606C467.764 115.487 467.808 115.307 467.885 115.072L467.873 115.065C467.786 115.254 467.627 115.55 467.393 115.954L465.66 118.957L465.16 118.668L467.747 114.187L468.43 114.582L467.981 118.489C467.948 118.783 467.91 119.001 467.872 119.141L467.893 119.153C468.123 118.96 468.3 118.816 468.422 118.726L471.603 116.414L472.252 116.788L469.665 121.269L469.666 121.269ZM471.26 122.19L470.756 121.899L472.604 118.699L473.107 118.99L471.26 122.19ZM473.857 117.893C473.802 117.988 473.724 118.047 473.622 118.074C473.573 118.088 473.522 118.092 473.472 118.086C473.422 118.079 473.374 118.062 473.331 118.036C473.241 117.984 473.181 117.908 473.153 117.808C473.125 117.708 473.139 117.61 473.196 117.511C473.249 117.419 473.326 117.358 473.428 117.331C473.529 117.304 473.625 117.319 473.715 117.371C473.808 117.424 473.868 117.501 473.895 117.601C473.923 117.703 473.91 117.801 473.857 117.893ZM474.493 123.859C474.164 123.87 473.833 123.778 473.499 123.586C473.047 123.324 472.771 122.962 472.668 122.498C472.568 122.046 472.653 121.587 472.922 121.12C473.225 120.595 473.618 120.256 474.102 120.106C474.585 119.954 475.076 120.023 475.577 120.312C475.851 120.471 476.063 120.665 476.214 120.896L475.91 121.422C475.771 121.119 475.571 120.891 475.303 120.737C474.982 120.552 474.655 120.515 474.322 120.625C473.976 120.735 473.69 120.984 473.466 121.372C473.251 121.744 473.179 122.095 473.247 122.425C473.316 122.753 473.513 123.011 473.84 123.2C474.115 123.359 474.427 123.416 474.774 123.373L474.493 123.859ZM478.365 122.718C478.316 122.597 478.207 122.49 478.039 122.392C477.834 122.274 477.607 122.267 477.359 122.375C477.08 122.493 476.834 122.738 476.619 123.109L475.678 124.74L475.172 124.449L477.02 121.249L477.525 121.54L477.144 122.2L477.156 122.207C477.365 122.017 477.584 121.903 477.81 121.864C478.012 121.829 478.219 121.865 478.394 121.968C478.529 122.045 478.62 122.118 478.672 122.186L478.365 122.717L478.365 122.718ZM480.551 125.429C480.788 125.019 480.878 124.653 480.819 124.334C480.761 124.025 480.573 123.78 480.255 123.596C479.941 123.414 479.629 123.373 479.32 123.473C478.993 123.582 478.711 123.839 478.476 124.247C478.254 124.63 478.175 124.985 478.243 125.31C478.308 125.636 478.502 125.891 478.823 126.077C479.155 126.268 479.472 126.305 479.772 126.188C480.066 126.073 480.325 125.82 480.551 125.429ZM481.079 125.71C480.785 126.219 480.406 126.547 479.946 126.691C479.484 126.835 479.014 126.769 478.533 126.491C478.059 126.218 477.772 125.846 477.673 125.378C477.574 124.925 477.665 124.454 477.946 123.966C478.268 123.41 478.669 123.069 479.153 122.943C479.602 122.825 480.066 122.903 480.544 123.179C481.014 123.45 481.295 123.811 481.39 124.259C481.482 124.707 481.379 125.191 481.079 125.71ZM483.147 127.912C482.995 128.174 482.774 128.335 482.481 128.396C482.161 128.462 481.817 128.388 481.453 128.177C481.154 128.005 480.929 127.791 480.782 127.533L481.1 126.982C481.229 127.329 481.443 127.589 481.743 127.762C482.142 127.993 482.429 127.959 482.601 127.662C482.636 127.604 482.658 127.54 482.666 127.473C482.674 127.407 482.668 127.339 482.647 127.276C482.605 127.143 482.489 126.946 482.299 126.683C482.102 126.413 481.984 126.184 481.944 125.995C481.897 125.77 481.941 125.539 482.078 125.301C482.231 125.036 482.464 124.875 482.772 124.819C483.081 124.762 483.399 124.827 483.726 125.016C483.977 125.161 484.173 125.34 484.314 125.556L484.016 126.071C483.896 125.799 483.702 125.586 483.432 125.43C483.265 125.333 483.106 125.298 482.959 125.322C482.888 125.333 482.821 125.359 482.762 125.4C482.704 125.441 482.655 125.495 482.621 125.557C482.539 125.699 482.517 125.834 482.556 125.961C482.589 126.077 482.696 126.258 482.876 126.5C483.079 126.77 483.206 127.001 483.254 127.191C483.319 127.433 483.284 127.674 483.147 127.912ZM486.659 128.955C486.895 128.545 486.985 128.179 486.926 127.86C486.868 127.551 486.68 127.305 486.362 127.122C486.048 126.94 485.736 126.899 485.427 126.999C485.099 127.107 484.818 127.365 484.582 127.773C484.361 128.156 484.283 128.512 484.348 128.835C484.416 129.162 484.609 129.418 484.93 129.603C485.262 129.795 485.579 129.831 485.879 129.714C486.173 129.598 486.433 129.346 486.659 128.955ZM487.188 129.236C486.893 129.746 486.514 130.073 486.053 130.217C485.592 130.362 485.121 130.295 484.641 130.018C484.167 129.744 483.879 129.372 483.781 128.904C483.681 128.451 483.772 127.98 484.054 127.492C484.375 126.936 484.778 126.596 485.26 126.469C485.709 126.351 486.173 126.429 486.651 126.705C487.122 126.977 487.403 127.338 487.497 127.785C487.589 128.233 487.487 128.718 487.188 129.236ZM490.957 127.846C490.887 127.73 490.788 127.634 490.67 127.568C490.317 127.364 490.011 127.488 489.75 127.941L489.465 128.434L490.204 128.861L489.954 129.295L489.214 128.868L487.618 131.634L487.112 131.342L488.709 128.576L488.172 128.267L488.423 127.832L488.96 128.142L489.259 127.624C489.462 127.271 489.728 127.056 490.059 126.982C490.345 126.916 490.621 126.961 490.89 127.117C491.046 127.207 491.157 127.296 491.224 127.384L490.957 127.846ZM490.493 133.251C490.334 133.252 490.155 133.194 489.959 133.081C489.408 132.763 489.315 132.29 489.679 131.66L490.771 129.767L490.23 129.455L490.481 129.02L491.022 129.333L491.473 128.552C491.664 128.594 491.864 128.634 492.075 128.678L491.528 129.625L492.322 130.083L492.071 130.518L491.277 130.06L490.235 131.865C490.111 132.08 490.057 132.253 490.078 132.384C490.098 132.518 490.191 132.632 490.359 132.729C490.485 132.802 490.613 132.83 490.745 132.814L490.493 133.251ZM455.97 130.015C455.825 130.266 455.612 130.431 455.328 130.512C455.193 130.552 455.053 130.564 454.914 130.547C454.776 130.53 454.643 130.485 454.523 130.413C454.404 130.347 454.3 130.255 454.219 130.146C454.138 130.036 454.081 129.909 454.052 129.775C454.018 129.641 454.011 129.501 454.031 129.364C454.051 129.227 454.098 129.094 454.169 128.975C454.318 128.717 454.53 128.549 454.806 128.468C454.937 128.428 455.075 128.415 455.21 128.431C455.345 128.447 455.476 128.491 455.592 128.562C455.845 128.708 456.008 128.923 456.08 129.208C456.153 129.495 456.115 129.763 455.97 130.015ZM466.849 137.278L465.203 136.328L464.632 123.512C464.623 123.196 464.644 122.879 464.695 122.565L464.646 122.537C464.544 122.813 464.255 123.363 463.779 124.188L458.878 132.676L457.521 131.893L464.304 120.144L466.066 121.161L466.543 133.726C466.562 134.225 466.569 134.578 466.558 134.782L466.59 134.801C466.732 134.432 467.036 133.839 467.506 133.026L472.284 124.751L473.633 125.53L466.849 137.278ZM475.552 142.303L469.414 138.759L476.197 127.01L482.069 130.4L481.35 131.645L476.834 129.038L474.578 132.947L478.762 135.362L478.043 136.608L473.859 134.192L471.489 138.297L476.271 141.057L475.552 142.303ZM490.926 137.174L487.59 135.248L481.526 145.752L480.169 144.969L486.234 134.465L482.891 132.535L483.61 131.289L491.646 135.929L490.926 137.174Z" fill="white" fill-opacity="0.3"/>
<path d="M484.889 104.971C483.853 109.789 480.164 117.323 483.994 119.534C484.285 119.702 484.596 119.843 484.925 119.957C481.92 117.123 485.646 109.717 485.665 104.779C485.405 104.838 485.146 104.902 484.889 104.971Z" fill="url(#paint0_linear_41_86)"/>
<path d="M485.665 104.779C485.646 109.717 481.92 117.123 484.925 119.957C485.236 120.065 485.554 120.148 485.878 120.206C483.65 116.849 486.805 109.389 486.328 104.645C486.11 104.685 485.889 104.729 485.665 104.779Z" fill="url(#paint1_linear_41_86)"/>
<path d="M490 104.338C489.709 104.17 489.397 104.029 489.068 103.915C488.207 103.616 487.225 103.499 486.135 103.554C486.229 103.912 486.293 104.277 486.328 104.646C487.527 104.433 488.618 104.394 489.591 104.553C489.947 104.611 490.296 104.7 490.636 104.818C490.445 104.632 490.231 104.47 490 104.338Z" fill="#14559A"/>
<path d="M489.143 120.183C489.631 120.105 490.117 120.005 490.597 119.883C491.601 115.071 495.368 107.446 491.512 105.219C491.237 105.06 490.943 104.925 490.636 104.818C493.637 107.731 489.61 115.744 489.143 120.183Z" fill="url(#paint2_linear_41_86)"/>
<path d="M490.636 104.818C490.445 104.631 490.231 104.47 490 104.338L491.513 105.219C491.237 105.059 490.944 104.925 490.636 104.818Z" fill="#3092C4"/>
<path d="M488.58 121.003C488.513 120.764 488.46 120.521 488.421 120.275C487.503 120.367 486.652 120.347 485.877 120.206C486.04 120.451 486.232 120.674 486.456 120.873C486.634 121.031 486.828 121.171 487.035 121.29C487.756 121.706 488.375 121.948 488.997 121.992C488.814 121.692 488.679 121.361 488.58 121.003Z" fill="#1969BC"/>
<path d="M489.591 104.553C491.773 108.039 487.682 115.757 488.42 120.275C488.658 120.252 488.898 120.221 489.142 120.183C489.61 115.744 493.637 107.731 490.636 104.818C490.296 104.699 489.947 104.611 489.591 104.553Z" fill="url(#paint3_linear_41_86)"/>
<path d="M486.327 104.646C486.805 109.39 483.65 116.849 485.877 120.206C486.653 120.347 487.503 120.367 488.42 120.275C487.682 115.757 491.773 108.039 489.591 104.553C488.618 104.393 487.527 104.432 486.327 104.646Z" fill="url(#paint4_linear_41_86)"/>
<path d="M483.401 103.982C482.522 104.631 481.478 105.547 480.152 106.766C481.847 105.975 483.433 105.366 484.888 104.971C484.985 104.534 485.057 104.093 485.105 103.649C484.532 103.729 483.963 103.84 483.401 103.982Z" fill="url(#paint5_linear_41_86)"/>
<path d="M485.585 103.593C485.427 103.609 485.268 103.627 485.106 103.65C485.058 104.093 484.986 104.535 484.889 104.971C485.146 104.902 485.405 104.838 485.665 104.779C485.668 104.382 485.641 103.985 485.585 103.593Z" fill="#2B74B1"/>
<path d="M486.135 103.553C485.954 103.562 485.771 103.576 485.584 103.592C485.641 103.985 485.668 104.382 485.664 104.779C485.889 104.729 486.11 104.684 486.327 104.646C486.293 104.277 486.229 103.911 486.135 103.553Z" fill="#125A9E"/>
<path d="M508.4 114.549C502.601 120.483 495.657 123.929 491.727 123.539L491.721 123.536L491.511 123.511L491.486 123.508L491.427 123.499L491.4 123.496L491.307 123.478L491.268 123.471L491.222 123.462L491.177 123.454L491.137 123.446L491.059 123.428L491.026 123.419L490.974 123.405L490.939 123.396L490.882 123.381L490.815 123.36C490.925 123.494 491.057 123.605 491.215 123.696C494.169 125.402 500.25 121.751 510.336 115.664L508.4 114.547L508.4 114.549Z" fill="url(#paint6_linear_41_86)"/>
<path d="M482.861 100.593L482.869 100.591L482.878 100.591L482.882 100.593L482.941 100.602L482.953 100.602L482.969 100.604L483.031 100.615L483.034 100.617L483.17 100.642L483.19 100.647L483.247 100.66L483.274 100.666L483.331 100.679L483.352 100.685L483.539 100.736L483.565 100.744L483.617 100.762L483.645 100.768L483.698 100.787L483.709 100.793L483.819 100.831L483.838 100.843L483.888 100.861L483.917 100.871L483.964 100.89L483.991 100.899L484.103 100.951C484.004 100.88 483.903 100.814 483.798 100.753C480.47 98.8318 472.27 102.448 465.522 109.366L465.92 109.596C467.184 108.833 468.435 108.049 469.674 107.245C474.437 102.336 479.645 100.118 482.861 100.591" fill="url(#paint7_linear_41_86)"/>
<path d="M483.402 103.982C483.963 103.84 484.532 103.729 485.105 103.649C485.129 103.422 485.141 103.193 485.141 102.964C484.62 103.163 484.057 103.497 483.402 103.982ZM484.98 101.88C485.091 102.19 485.138 102.557 485.141 102.964C485.234 102.928 485.329 102.896 485.425 102.868C485.318 102.501 485.159 102.153 484.951 101.834L484.976 101.871L484.98 101.88Z" fill="#0D82CA"/>
<path d="M469.674 107.247C476.132 103.068 479.737 100.144 482.861 100.593C479.645 100.121 474.437 102.338 469.674 107.247Z" fill="url(#paint8_linear_41_86)"/>
<path d="M485.425 102.868C485.33 102.895 485.237 102.927 485.14 102.964C485.142 103.181 485.129 103.408 485.105 103.65C485.267 103.627 485.427 103.61 485.584 103.593C485.548 103.348 485.495 103.106 485.425 102.868Z" fill="#127BCA"/>
<path d="M469.111 111.404L469.052 111.379L469.042 111.373L468.992 111.351L468.984 111.346L468.869 111.29L468.857 111.283C471.978 112.968 474.282 112.219 476.285 110.359C477.804 108.95 479.073 107.756 480.154 106.764C477.808 107.858 475.251 109.301 472.536 111.004C471.228 111.824 469.99 111.768 469.112 111.402" fill="url(#paint9_linear_41_86)"/>
<path d="M469.112 111.403C469.989 111.769 471.227 111.826 472.536 111.005C475.25 109.303 477.807 107.86 480.153 106.765C481.48 105.546 482.523 104.629 483.403 103.981C479.413 104.975 474.468 107.603 469.112 111.402" fill="url(#paint10_linear_41_86)"/>
<path d="M469.674 107.247C468.435 108.051 467.184 108.835 465.92 109.598L467.078 110.266C467.883 109.209 468.75 108.201 469.674 107.248" fill="#05A1E6"/>
<path d="M483.989 100.903L483.962 100.894L483.915 100.875L483.887 100.865L483.837 100.847L483.814 100.84L483.705 100.801L483.694 100.794L483.64 100.776L483.613 100.768L483.56 100.751L483.535 100.743L483.348 100.693L483.326 100.687L483.268 100.674L483.243 100.667L483.186 100.653L483.165 100.648L483.029 100.623L482.967 100.611L482.941 100.608L482.883 100.599L482.862 100.597C479.739 100.148 476.134 103.072 469.676 107.251C468.751 108.205 467.884 109.213 467.08 110.27L467.242 110.364L468.358 111.001L468.868 111.296L468.984 111.353L468.991 111.357L469.041 111.379L469.052 111.386L469.111 111.411C474.466 107.612 479.412 104.984 483.401 103.99C484.056 103.505 484.619 103.171 485.139 102.972C485.137 102.565 485.09 102.198 484.979 101.887L484.976 101.879L484.95 101.84L484.925 101.801L484.9 101.764L484.869 101.722L484.845 101.69L484.794 101.622L484.772 101.595L484.734 101.546L484.712 101.521L484.656 101.457L484.65 101.453L484.583 101.384L484.568 101.367L484.512 101.309L484.498 101.295C484.451 101.248 484.402 101.203 484.351 101.16L484.337 101.145L484.27 101.091L484.259 101.078L484.179 101.017L484.163 101.008L484.101 100.962L483.989 100.91" fill="url(#paint11_linear_41_86)"/>
<path d="M499.225 114.39C497.546 115.95 496.17 117.242 495.015 118.292C497.908 116.981 501.109 115.079 504.486 112.7C502.411 112.247 500.738 112.985 499.225 114.39Z" fill="url(#paint12_linear_41_86)"/>
<path d="M492.04 123.562C491.934 123.557 491.829 123.55 491.727 123.54C495.657 123.929 502.602 120.483 508.4 114.549L508.039 114.341C499.674 119.389 495.496 123.589 492.04 123.562Z" fill="url(#paint13_linear_41_86)"/>
<path d="M490.365 121.765C491.527 121.317 492.903 120.209 495.015 118.292C493.446 119.002 491.969 119.538 490.603 119.882L490.594 119.887C490.45 120.578 490.363 121.212 490.363 121.764" fill="#079AE1"/>
<path d="M490.365 121.765C489.969 121.917 489.599 121.994 489.234 121.998C489.154 121.999 489.075 121.997 488.996 121.992C489.193 122.315 489.445 122.601 489.771 122.845L489.919 122.949L489.928 122.954L490 123.002L490.253 123.148L490.285 123.16L490.344 123.187L490.371 123.203L490.436 123.232L490.44 123.234L490.461 123.241L490.532 123.268L490.551 123.279L490.631 123.308L490.643 123.315L490.807 123.368C490.49 122.987 490.358 122.44 490.357 121.771" fill="#1969BC"/>
<path d="M483.994 119.534C484.285 119.702 484.596 119.843 484.925 119.956C485.228 120.063 485.547 120.145 485.877 120.206C486.174 120.653 486.57 121.024 487.035 121.29L483.994 119.534ZM487.035 121.29C487.755 121.706 488.376 121.948 488.996 121.992C489.197 122.324 489.461 122.614 489.771 122.845L489.919 122.948L489.928 122.953L490 123.001L490.09 123.053L487.035 121.29Z" fill="#1E5CB3"/>
<path d="M490.09 123.053L490.256 123.149L490.287 123.161L490.347 123.189L490.374 123.205L490.439 123.233L490.444 123.236L490.465 123.242L490.535 123.27L490.558 123.276L490.638 123.307L490.649 123.313L490.813 123.366C490.925 123.502 491.061 123.616 491.213 123.703L490.087 123.059L490.09 123.053Z" fill="#1D60B5"/>
<path d="M490.595 119.888L490.598 119.883C490.118 120.005 489.633 120.105 489.144 120.183C488.899 120.221 488.659 120.252 488.421 120.275C488.461 120.521 488.514 120.764 488.581 121.003C488.68 121.361 488.815 121.692 488.997 121.992C489.076 121.997 489.155 121.999 489.235 121.998C489.6 121.994 489.97 121.917 490.366 121.765C490.366 121.213 490.452 120.579 490.597 119.888" fill="#175FAB"/>
<path d="M506.897 113.681L505.083 112.634L504.787 112.482L504.485 112.695C501.109 115.074 497.907 116.976 495.014 118.287C492.903 120.204 491.526 121.312 490.364 121.76C490.364 122.429 490.498 122.976 490.812 123.357L490.848 123.368L490.854 123.372L490.879 123.38L490.937 123.396L490.972 123.405L491.023 123.418L491.056 123.427L491.135 123.445L491.174 123.453L491.22 123.461L491.265 123.47L491.304 123.476L491.398 123.494L491.424 123.498L491.483 123.507L491.508 123.511L491.718 123.535L491.724 123.539C491.826 123.549 491.931 123.556 492.036 123.561C495.494 123.588 499.672 119.388 508.037 114.34L506.895 113.681L506.897 113.681Z" fill="url(#paint14_linear_41_86)"/>
<path d="M484.102 100.955L484.118 100.97L484.162 101.003L484.178 101.012L484.258 101.073L484.27 101.086L484.336 101.141L484.351 101.156L484.498 101.291L484.51 101.305L484.567 101.363L484.582 101.379L484.649 101.449L484.652 101.457L484.708 101.522L484.73 101.546L484.768 101.596L484.791 101.623L484.841 101.69L484.866 101.723L484.896 101.764L484.922 101.802L484.946 101.841C485.154 102.16 485.314 102.509 485.421 102.876C485.568 102.831 485.714 102.799 485.858 102.778C485.542 102.077 485.057 101.501 484.351 101.094C484.269 101.046 484.185 101.004 484.098 100.962" fill="#7DCBEC"/>
<path d="M485.425 102.868C485.493 103.098 485.546 103.342 485.584 103.593C485.771 103.576 485.954 103.562 486.135 103.554C486.067 103.285 485.975 103.022 485.861 102.77C485.713 102.791 485.568 102.824 485.425 102.868Z" fill="#5EC5ED"/>
<path d="M484.012 100.929L484.265 101.061C484.971 101.469 485.456 102.044 485.771 102.744C486.605 102.618 487.386 102.855 488.345 103.409L483.707 100.731L484.012 100.929Z" fill="url(#paint15_linear_41_86)"/>
<path d="M488.345 103.409C487.388 102.856 486.605 102.618 485.771 102.744C485.882 102.989 485.973 103.251 486.045 103.526C487.134 103.472 488.117 103.588 488.979 103.886C489.307 104.001 489.619 104.142 489.91 104.31L488.345 103.409Z" fill="url(#paint16_linear_41_86)"/>
<path d="M495.014 118.294C496.17 117.243 497.545 115.951 499.225 114.391C500.739 112.986 502.411 112.246 504.485 112.7L504.788 112.487C501.831 111.012 499.644 111.715 497.712 113.511C494.336 116.644 492.197 118.704 490.603 119.883C491.969 119.539 493.446 119.002 495.014 118.294Z" fill="url(#paint17_linear_41_86)"/>
</g>
<ellipse cx="152.151" cy="55.8681" rx="33" ry="33.4775" transform="rotate(-32.2908 152.151 55.8681)" fill="#18181C"/>
<ellipse cx="152.151" cy="55.8681" rx="33" ry="33.4775" transform="rotate(-32.2908 152.151 55.8681)" fill="#18181C"/>
<g clip-path="url(#clip9_41_86)">
<path d="M139.044 58.0947L164.057 42.2875L175.91 61.0434L150.897 76.8506L139.044 58.0947Z" fill="white"/>
<path d="M136.452 65.7574L146.507 81.6695L177.878 61.8451L157.766 30.0209L126.396 49.8453L136.452 65.7574ZM160.927 48.5091C161.79 48.2112 162.725 48.1783 163.613 48.4146C164.098 48.5379 164.567 48.7201 165.01 48.9572C165.035 48.9979 164.267 50.7836 163.77 51.8247C163.753 51.8641 163.549 51.8079 163.288 51.6908C162.971 51.5222 162.617 51.4367 162.26 51.4424C161.903 51.448 161.555 51.5446 161.247 51.723C160.254 52.2579 159.962 53.1515 160.493 53.9809C160.616 54.1931 160.793 54.3692 161.005 54.491C161.492 54.7998 162.047 54.8162 163.604 54.5801C166.47 54.1408 167.84 54.1801 169.018 54.7217C170.329 55.3182 171.516 56.8693 171.834 58.3717C172.168 60.0128 171.507 61.6887 169.956 63.0856C169.22 63.6799 168.412 64.1785 167.55 64.57C166.208 65.1343 164.716 65.2497 163.291 64.8993C162.798 64.7584 161.704 64.2709 161.7 64.1876C161.748 64.0608 161.806 63.9377 161.871 63.8194L162.622 62.4333L163.188 61.3344L163.555 61.4981C164.164 61.7583 164.816 61.8956 165.475 61.9022C166.816 61.8025 168.14 60.8627 168.427 59.8158C168.511 59.4454 168.463 59.0552 168.291 58.7133C168.119 58.3714 167.835 58.0994 167.486 57.9446C167.012 57.7493 166.322 57.7686 164.526 58.034C162.46 58.3492 161.486 58.3521 160.408 58.0574C159.719 57.8485 159.082 57.4911 158.541 57.0102C157.991 56.4184 157.537 55.7424 157.199 55.0083C156.53 53.2113 157.002 51.3631 158.506 49.9531C159.236 49.3527 160.053 48.8676 160.93 48.5142L160.927 48.5091ZM154.406 54.4964L155.23 55.7999L151.157 58.3739L158.595 70.1438L155.706 71.9692L148.267 60.1968L144.184 62.7772L143.379 61.5042C143.089 61.0732 142.822 60.6275 142.578 60.1689C142.583 60.1333 145.073 58.56 148.084 56.6569L153.563 53.1947L154.406 54.4964Z" fill="#007ACC"/>
</g>
<ellipse cx="523.291" cy="623.065" rx="33" ry="33.4775" transform="rotate(151.56 523.291 623.065)" fill="#18181C"/>
<ellipse cx="523.291" cy="623.065" rx="33" ry="33.4775" transform="rotate(151.56 523.291 623.065)" fill="#18181C"/>
<g clip-path="url(#clip10_41_86)">
<path d="M507.568 618.701C508.416 620.833 508.646 621.089 506.999 621.561L506.608 621.73C505.449 622.29 504.097 623.328 503.45 624.209C502.056 626.103 501.743 628.174 503.378 626.789C507.11 623.629 508.182 624.918 508.182 624.918C507.361 634.014 510.102 643.512 512.832 644.722C520.276 648.023 526.395 641.241 526.484 641.104L526.521 641.074C527.447 640.799 528.434 640.399 529.489 639.85C531.411 638.85 532.565 637.529 533.204 636.092C533.204 636.092 549.768 634.422 542.237 622.019C540.635 619.38 527.297 603.58 525.8 611.345C525.253 614.184 524.596 616.69 524.596 616.69C523.541 616.588 522.47 616.823 521.551 617.445L521.511 617.551C521.403 617.294 521.263 617.061 521.067 616.801C521.505 614.899 521.049 614.853 523.063 613.149C525.101 611.425 523.288 611.301 522.285 611.554C521.07 611.862 518.391 612.817 518.005 616.093L517.925 615.786C517.283 615.666 516.101 613.412 515.173 611.848C514.244 610.283 513.33 608.848 512.532 608.143C511.735 607.437 510.129 605.377 507.496 607.642C505.294 609.534 503.81 611.347 507.568 618.701Z" fill="black"/>
<path d="M507.61 605.534C508.93 604.819 510.071 604.871 510.863 605.089C512.06 605.416 512.899 606.219 513.4 606.698L513.612 606.897C514.546 607.723 515.476 609.136 516.586 611.004C516.752 611.285 516.92 611.576 517.099 611.884C517.229 612.11 517.392 612.393 517.567 612.687C517.918 612.2 518.335 611.764 518.806 611.394C519.649 610.729 520.678 610.239 521.865 609.939C522.702 609.727 523.676 609.7 524.436 610.061C525.095 608.244 526.389 607.741 527.171 607.607C528.549 607.37 530.191 607.913 532.19 609.266C533.615 610.229 535.236 611.612 537.01 613.375C540.1 616.444 542.893 619.927 543.642 621.162C545.988 625.025 546.472 628.435 545.081 631.294C542.887 635.805 536.637 637.236 534.285 637.623C533.395 639.157 532.044 640.401 530.26 641.33C529.301 641.829 528.351 642.234 527.428 642.537C526.703 643.292 525.189 644.631 523.193 645.679C519.518 647.613 515.71 647.808 512.182 646.243C509.664 645.127 508.215 640.705 507.575 638.169C506.676 634.601 506.269 630.508 506.415 626.674C505.947 626.923 505.301 627.346 504.449 628.068C502.768 629.492 501.654 628.761 501.254 628.381C499.647 626.855 501.51 624.035 502.119 623.207C502.9 622.146 504.445 620.921 505.879 620.228L505.942 620.199L506.328 620.033L506.196 619.702L506.066 619.379C504.167 615.649 503.423 613.038 503.656 610.921C503.899 608.702 505.207 607.408 506.414 606.37C506.826 606.016 507.226 605.742 507.61 605.534ZM517.641 617.421C516.414 617.19 515.634 615.929 514.25 613.533C514.077 613.234 513.914 612.951 513.758 612.688C513.286 611.893 512.18 610.031 511.451 609.386C511.348 609.295 511.248 609.2 511.143 609.099C510.265 608.259 509.824 607.838 508.575 608.912C507.527 609.814 507.041 610.376 506.937 611.326C506.786 612.706 507.491 614.936 509.033 617.954L507.568 618.701L509.099 618.098L509.253 618.485C509.765 619.758 510.135 620.678 509.655 621.679C509.27 622.481 508.524 622.828 507.892 623.034C508.786 623.176 509.269 623.65 509.442 623.858L509.889 624.395L509.826 625.089C509.465 629.083 509.811 633.565 510.775 637.386C511.765 641.312 513.025 642.999 513.481 643.2C519.515 645.876 524.635 640.649 525.16 640.086L525.237 639.967L525.725 639.57L526.036 639.478C526.892 639.223 527.794 638.851 528.717 638.37C530.168 637.616 531.141 636.643 531.695 635.396L532.08 634.531L533.019 634.437C535.022 634.229 540.566 632.991 542.115 629.796C542.975 628.023 542.542 625.694 540.831 622.874C540.266 621.944 537.664 618.67 534.706 615.731C530.618 611.669 528.418 610.776 527.762 610.889C527.647 610.908 527.504 611.242 527.419 611.681C527.063 613.511 526.654 615.329 526.191 617.133L525.838 618.48L524.456 618.346C523.899 618.292 523.364 618.38 522.886 618.601L521.603 621.997L519.992 618.187C519.956 618.101 519.9 617.988 519.757 617.8L519.28 617.171L519.456 616.406L519.476 616.317L517.814 616.415L517.641 617.421Z" fill="black"/>
<path d="M503.379 626.789C507.11 623.629 508.183 624.918 508.183 624.918C507.362 634.014 510.103 643.513 512.832 644.722C520.276 648.023 526.395 641.241 526.484 641.103L526.521 641.074C527.447 640.798 528.434 640.398 529.49 639.849C531.412 638.849 532.565 637.529 533.204 636.092C533.204 636.092 549.768 634.421 542.238 622.018C540.636 619.379 527.297 603.578 525.8 611.344C525.253 614.183 524.597 616.689 524.597 616.689C523.541 616.587 522.471 616.822 521.552 617.443L521.512 617.549C521.403 617.292 521.263 617.059 521.067 616.8C521.506 614.897 521.05 614.852 523.064 613.148C525.101 611.423 523.288 611.299 522.286 611.553C521.071 611.86 518.391 612.815 518.005 616.091L517.926 615.785C517.285 615.664 515.894 613.842 514.969 612.01C514.044 610.176 513.408 608.918 512.533 608.141C511.658 607.363 510.13 605.375 507.496 607.641C505.295 609.534 504.764 611.639 505.853 614.08C506.628 615.816 506.206 615.726 506.995 617.226L507.145 618.057C508.101 620.46 508.72 621.067 507 621.561L506.609 621.73C505.449 622.29 504.097 623.329 503.45 624.209C502.056 626.103 501.743 628.174 503.379 626.789Z" fill="#336791"/>
<path d="M507.95 606.52C510.438 605.172 512.309 606.744 513.074 607.387C514.195 608.329 516.815 612.924 518.775 616.793C518.808 616.858 518.828 616.929 518.834 617.002C518.84 617.075 518.832 617.148 518.81 617.217C518.788 617.286 518.752 617.35 518.705 617.405C518.658 617.46 518.601 617.505 518.536 617.537C518.472 617.57 518.402 617.589 518.33 617.594C518.258 617.599 518.185 617.59 518.117 617.567C518.048 617.544 517.984 617.507 517.929 617.459C517.874 617.412 517.829 617.353 517.796 617.288C515.535 612.825 513.205 608.933 512.375 608.236C511.081 607.148 509.599 606.387 507.536 608.161C505.578 609.846 505.209 611.15 506.018 613.528C506.639 615.353 508.652 620.411 509.091 621.386C509.121 621.453 509.137 621.525 509.14 621.597C509.143 621.67 509.131 621.743 509.106 621.811C509.08 621.879 509.042 621.941 508.993 621.993C508.943 622.046 508.884 622.088 508.818 622.117C508.685 622.177 508.534 622.18 508.397 622.127C508.261 622.074 508.15 621.969 508.089 621.834C507.633 620.818 505.622 615.771 504.978 613.876C504.022 611.068 504.52 609.289 506.816 607.314C507.206 606.978 507.585 606.718 507.95 606.52ZM526.729 608.976C526.947 608.859 527.183 608.779 527.427 608.737C529.34 608.409 532.325 610.246 536.302 614.197C539.328 617.204 542.044 620.583 542.765 621.77C544.9 625.287 545.367 628.34 544.153 630.844C541.752 635.799 533.681 636.69 533.339 636.726C533.194 636.741 533.048 636.697 532.933 636.604C532.819 636.512 532.745 636.377 532.729 636.231C532.712 636.085 532.754 635.938 532.844 635.824C532.935 635.71 533.068 635.637 533.213 635.622C533.291 635.614 541.029 634.757 543.165 630.345C544.202 628.203 543.752 625.509 541.828 622.34C541.221 621.34 538.599 618.027 535.534 614.982C531.984 611.455 529.102 609.577 527.625 609.831C527.393 609.871 526.688 609.992 526.399 611.493C526.061 613.242 525.668 614.979 525.222 616.701C525.181 616.84 525.089 616.957 524.963 617.026C524.838 617.096 524.69 617.113 524.551 617.074C524.412 617.034 524.293 616.942 524.22 616.817C524.147 616.691 524.125 616.542 524.159 616.402C524.165 616.378 524.782 614.054 525.318 611.269C525.572 609.95 526.145 609.293 526.729 608.976ZM507.976 624.465C508.064 624.418 508.163 624.396 508.262 624.401C508.362 624.406 508.459 624.438 508.542 624.494C508.626 624.551 508.693 624.628 508.736 624.719C508.78 624.81 508.798 624.911 508.789 625.011C507.959 634.207 510.808 643.233 513.107 644.253C516 645.535 519.024 645.386 522.094 643.809C524.367 642.642 525.838 641.092 526.075 640.833L526.132 640.763C526.375 640.51 526.688 640.551 526.877 640.696C526.984 640.779 527.058 640.899 527.085 641.032C527.112 641.165 527.09 641.304 527.022 641.42C527.013 641.436 526.979 641.479 526.922 641.544C526.526 641.997 525.011 643.531 522.752 644.721C519.375 646.504 515.89 646.692 512.674 645.266C511.153 644.592 509.705 641.923 508.701 637.945C507.678 633.889 507.311 629.133 507.693 624.897C507.71 624.707 507.821 624.549 507.976 624.465ZM506.051 621.459C506.818 621.043 507.565 620.781 508.112 620.808C508.675 620.836 508.945 621.142 509.056 621.322C510.286 623.317 509.361 624.281 508.879 624.753C509.024 624.832 509.215 624.915 509.412 624.999C509.974 625.241 510.742 625.572 511.561 626.246C511.69 626.351 512.032 626.571 512.428 626.827C514.576 628.209 519.045 631.085 518.734 633.965C518.591 635.298 517.465 636.402 515.386 637.252C516.931 638.725 522.706 642.819 529.291 639.393C531.272 638.363 532.55 636.879 533.089 634.984C534.294 630.743 531.477 625.775 531.449 625.726C531.412 625.663 531.388 625.593 531.379 625.52C531.369 625.448 531.373 625.375 531.391 625.305C531.41 625.234 531.442 625.169 531.485 625.111C531.529 625.054 531.584 625.006 531.646 624.97C531.709 624.934 531.778 624.911 531.849 624.902C531.921 624.893 531.994 624.898 532.063 624.917C532.133 624.937 532.199 624.969 532.256 625.014C532.314 625.059 532.362 625.115 532.399 625.178C532.526 625.398 535.48 630.612 534.147 635.302C533.523 637.497 532.062 639.205 529.805 640.38C525.592 642.572 521.738 641.874 519.247 640.902C516.532 639.844 514.552 638.127 514.095 637.443C513.755 636.935 514.076 636.622 514.144 636.565L514.316 636.467C516.412 635.736 517.531 634.849 517.641 633.832C517.877 631.641 513.649 628.921 511.844 627.759C511.383 627.463 511.051 627.248 510.872 627.101C510.175 626.528 509.518 626.246 508.991 626.018C508.526 625.819 508.124 625.645 507.846 625.336C507.769 625.287 506.75 624.748 503.794 627.252C503.053 627.88 502.471 628.002 502.063 627.615C501.261 626.853 502.368 624.859 503.065 623.911C503.689 623.061 504.893 622.086 506.051 621.459ZM508.138 621.923C507.974 621.872 507.343 621.972 506.273 622.613C505.322 623.183 504.41 623.955 503.951 624.579C503.364 625.378 503.062 626.079 502.943 626.51L503.079 626.4C504.969 624.799 506.509 624.042 507.657 624.15C507.734 624.157 507.811 624.168 507.887 624.184C507.958 624.098 508.03 624.029 508.08 623.979C508.484 623.584 508.902 623.176 508.138 621.923ZM520.429 611.731C520.959 611.444 521.556 611.215 522.203 611.051C522.874 610.882 524.112 610.794 524.498 611.542C524.93 612.381 523.875 613.275 523.478 613.611C522.043 614.825 522.011 615.018 521.858 615.944C521.813 616.213 521.758 616.549 521.661 616.968C521.518 617.591 521.228 618.025 520.798 618.257C520.5 618.419 520.199 618.449 520 618.468C519.366 618.531 518.651 618.239 518.134 617.708C517.667 617.228 517.448 616.641 517.517 616.056C517.743 614.136 518.75 612.64 520.429 611.731ZM523.433 612.064C523.226 612.029 522.852 612.034 522.483 612.128C521.923 612.269 521.41 612.465 520.959 612.709C519.585 613.453 518.794 614.628 518.609 616.2C518.571 616.528 518.784 616.802 518.915 616.937C519.188 617.218 519.585 617.394 519.879 617.365C520.039 617.349 520.169 617.333 520.268 617.279C520.321 617.25 520.483 617.162 520.589 616.705C520.66 616.389 520.722 616.07 520.772 615.749C520.962 614.596 521.102 614.164 522.764 612.758C523.17 612.415 523.352 612.191 523.433 612.064ZM520.947 616.329C521.062 616.267 521.196 616.249 521.325 616.278C521.453 616.307 521.568 616.381 521.648 616.487C521.704 616.561 521.756 616.639 521.805 616.719C523.046 616.077 524.521 615.97 525.936 616.435C527.726 617.023 529.148 618.411 529.836 620.243C530.583 622.232 531.563 623.814 532.09 624.664C532.237 624.901 532.343 625.072 532.408 625.194C532.491 625.349 532.71 625.762 531.734 627.19C531.387 627.698 530.656 628.652 529.662 629.334C528.015 630.463 526.437 630.297 525.217 628.868C521.924 625.009 521.735 622.615 521.597 620.867C521.571 620.542 521.547 620.234 521.505 619.947L521.468 619.693C521.312 618.615 521.177 617.684 520.775 617.152C520.731 617.093 520.699 617.027 520.68 616.957C520.661 616.886 520.657 616.813 520.666 616.74C520.676 616.668 520.699 616.599 520.735 616.536C520.771 616.474 520.819 616.419 520.877 616.375L520.947 616.329ZM531.367 625.582L531.159 625.243C530.612 624.36 529.594 622.717 528.807 620.624C528.24 619.113 527.073 617.97 525.607 617.489C524.448 617.108 523.246 617.203 522.25 617.742L522.229 617.754C522.376 618.291 522.463 618.895 522.557 619.545L522.594 619.797C522.642 620.122 522.667 620.448 522.695 620.792C522.827 622.475 522.993 624.569 526.048 628.15C526.653 628.859 527.319 629.099 528.083 628.883C529.651 628.439 531.158 626.242 531.367 625.582ZM528.569 627.367C528.499 627.181 527.913 626.901 527.44 627.077C526.969 627.252 526.789 627.816 526.859 628.002C526.929 628.188 527.368 628.197 527.841 628.021C528.313 627.845 528.639 627.552 528.569 627.367ZM527.248 626.961L527.375 626.903C527.668 626.794 528.037 626.819 528.363 626.97C528.477 627.024 528.678 627.137 528.74 627.303C528.832 627.545 528.634 627.827 528.21 628.057C528.116 628.108 528.013 628.154 527.907 628.194C527.657 628.287 527.406 628.335 527.198 628.332C526.839 628.325 526.725 628.162 526.688 628.065C526.587 627.798 526.778 627.216 527.248 626.961ZM528.393 627.424C528.322 627.325 527.871 627.114 527.506 627.25L527.424 627.287C527.111 627.457 527.012 627.834 527.029 627.93C527.088 627.971 527.364 628 527.775 627.847C527.864 627.815 527.95 627.776 528.033 627.731C528.279 627.598 528.379 627.471 528.393 627.424ZM515.42 634.944C515.302 634.784 515.388 634.141 515.793 633.841C516.198 633.542 516.768 633.7 516.886 633.859C517.003 634.02 516.77 634.393 516.365 634.692C515.961 634.992 515.537 635.104 515.42 634.944ZM515.847 633.698C516.269 633.469 516.813 633.605 516.96 633.805C517.135 634.046 516.821 634.471 516.421 634.767C516.332 634.832 516.242 634.89 516.151 634.939C515.776 635.142 515.468 635.165 515.346 634.999C515.267 634.891 515.258 634.664 515.322 634.42C515.364 634.259 515.474 633.961 515.739 633.766L515.847 633.698ZM516.062 634.776C516.145 634.731 516.229 634.677 516.31 634.617C516.713 634.32 516.877 634.002 516.812 633.914C516.741 633.817 516.299 633.664 515.934 633.861L515.848 633.916C515.628 634.078 515.535 634.333 515.499 634.47C515.442 634.685 515.462 634.848 515.493 634.89C515.534 634.946 515.744 634.949 516.062 634.776ZM509.409 625.354C509.496 625.307 509.595 625.285 509.695 625.29C509.794 625.295 509.891 625.327 509.975 625.383C510.058 625.439 510.125 625.516 510.169 625.607C510.212 625.698 510.23 625.799 510.222 625.899C510.037 628.012 511.085 629.497 512.098 630.933C512.529 631.545 512.975 632.177 513.306 632.837C513.647 633.516 513.861 634.113 514.069 634.689C514.315 635.372 514.547 636.017 514.968 636.704C515.006 636.767 515.032 636.836 515.043 636.908C515.055 636.98 515.053 637.053 515.036 637.124C515.02 637.195 514.99 637.261 514.948 637.32C514.906 637.379 514.853 637.428 514.791 637.466C514.73 637.504 514.662 637.529 514.59 637.54C514.519 637.551 514.446 637.548 514.376 637.53C514.305 637.513 514.239 637.482 514.18 637.438C514.121 637.395 514.072 637.341 514.033 637.279C513.552 636.493 513.289 635.763 513.035 635.057C512.839 634.511 512.636 633.947 512.325 633.328C512.032 632.744 511.63 632.173 511.203 631.568C510.126 630.041 508.905 628.31 509.125 625.789C509.133 625.698 509.163 625.611 509.213 625.535C509.262 625.459 509.33 625.397 509.409 625.354Z" fill="white"/>
</g>
<ellipse cx="351.887" cy="592.341" rx="33" ry="33.4775" transform="rotate(176.769 351.887 592.341)" fill="#18181C"/>
<ellipse cx="351.887" cy="592.341" rx="33" ry="33.4775" transform="rotate(176.769 351.887 592.341)" fill="#18181C"/>
<g clip-path="url(#clip11_41_86)">
<path d="M357.949 571.009C354.044 571.011 350.896 574.162 350.897 578.067L350.9 585.121L357.955 585.119C361.86 585.117 365.008 581.966 365.007 578.061C365.005 574.156 361.854 571.008 357.949 571.009Z" fill="#0ACF83"/>
<path d="M365.012 592.17C365.014 596.075 361.865 599.226 357.96 599.228L350.906 599.231L350.9 585.121L357.955 585.119C361.859 585.117 365.011 588.266 365.012 592.17Z" fill="#A259FF"/>
<path d="M365.018 606.28C365.019 610.184 361.871 613.336 357.966 613.337L350.911 613.34L350.906 599.231L357.96 599.228C361.865 599.226 365.016 602.375 365.018 606.28Z" fill="#F24E1E"/>
<path d="M350.911 613.34L343.857 613.343C339.952 613.344 336.801 610.196 336.799 606.291C336.798 602.386 339.946 599.235 343.851 599.234L350.906 599.231L350.911 613.34Z" fill="#FF7262"/>
<path d="M336.794 592.182C336.792 588.277 339.941 585.126 343.845 585.124C347.75 585.123 350.901 588.271 350.903 592.176C350.904 596.081 347.756 599.232 343.851 599.234C339.946 599.235 336.795 596.086 336.794 592.182Z" fill="#1ABCFE"/>
</g>
<defs>
<linearGradient id="paint0_linear_41_86" x1="489.796" y1="104.159" x2="479.666" y2="121.705" gradientUnits="userSpaceOnUse">
<stop stop-color="#0994DC"/>
<stop offset="0.35" stop-color="#66CEF5"/>
<stop offset="0.846" stop-color="#127BCA"/>
<stop offset="1" stop-color="#127BCA"/>
</linearGradient>
<linearGradient id="paint1_linear_41_86" x1="490.706" y1="103.991" x2="480.291" y2="122.03" gradientUnits="userSpaceOnUse">
<stop stop-color="#0E76BC"/>
<stop offset="0.36" stop-color="#36AEE8"/>
<stop offset="0.846" stop-color="#00ADEF"/>
<stop offset="1" stop-color="#00ADEF"/>
</linearGradient>
<linearGradient id="paint2_linear_41_86" x1="486.096" y1="120.166" x2="494.362" y2="105.849" gradientUnits="userSpaceOnUse">
<stop stop-color="#1C63B7"/>
<stop offset="0.5" stop-color="#33BDF2"/>
<stop offset="1" stop-color="#33BDF2" stop-opacity="0.42"/>
</linearGradient>
<linearGradient id="paint3_linear_41_86" x1="494.356" y1="103.665" x2="483.543" y2="122.395" gradientUnits="userSpaceOnUse">
<stop stop-color="#166AB8"/>
<stop offset="0.4" stop-color="#36AEE8"/>
<stop offset="0.846" stop-color="#0798DD"/>
<stop offset="1" stop-color="#0798DD"/>
</linearGradient>
<linearGradient id="paint4_linear_41_86" x1="492.939" y1="103.02" x2="481.44" y2="122.936" gradientUnits="userSpaceOnUse">
<stop stop-color="#124379"/>
<stop offset="0.39" stop-color="#1487CB"/>
<stop offset="0.78" stop-color="#165197"/>
<stop offset="1" stop-color="#165197"/>
</linearGradient>
<linearGradient id="paint5_linear_41_86" x1="481.436" y1="104.198" x2="484.211" y2="105.8" gradientUnits="userSpaceOnUse">
<stop stop-color="#33BDF2" stop-opacity="0.698"/>
<stop offset="1" stop-color="#1DACD8"/>
</linearGradient>
<linearGradient id="paint6_linear_41_86" x1="496.896" y1="125.915" x2="504.968" y2="111.932" gradientUnits="userSpaceOnUse">
<stop stop-color="#136AB4"/>
<stop offset="0.6" stop-color="#59CAF5" stop-opacity="0.549"/>
<stop offset="1" stop-color="#59CAF5" stop-opacity="0.235"/>
</linearGradient>
<linearGradient id="paint7_linear_41_86" x1="469.664" y1="101.855" x2="479.952" y2="107.795" gradientUnits="userSpaceOnUse">
<stop stop-color="#05A1E6" stop-opacity="0.247"/>
<stop offset="1" stop-color="#05A1E6"/>
</linearGradient>
<linearGradient id="paint8_linear_41_86" x1="471.74" y1="111.89" x2="479.984" y2="97.6105" gradientUnits="userSpaceOnUse">
<stop stop-color="#318ED5"/>
<stop offset="1" stop-color="#38A7E4"/>
</linearGradient>
<linearGradient id="paint9_linear_41_86" x1="472.502" y1="112.39" x2="480.536" y2="98.4738" gradientUnits="userSpaceOnUse">
<stop stop-color="#05A1E6"/>
<stop offset="1" stop-color="#05A1E6" stop-opacity="0.549"/>
</linearGradient>
<linearGradient id="paint10_linear_41_86" x1="472.893" y1="113.621" x2="479.682" y2="101.861" gradientUnits="userSpaceOnUse">
<stop stop-color="#1959A6"/>
<stop offset="0.5" stop-color="#05A1E6"/>
<stop offset="0.918" stop-color="#7EC5EA"/>
<stop offset="1" stop-color="#7EC5EA"/>
</linearGradient>
<linearGradient id="paint11_linear_41_86" x1="473.729" y1="113.045" x2="478.792" y2="99.0255" gradientUnits="userSpaceOnUse">
<stop stop-color="#165096"/>
<stop offset="1" stop-color="#0D82CA"/>
</linearGradient>
<linearGradient id="paint12_linear_41_86" x1="498.41" y1="117.68" x2="502.257" y2="111.016" gradientUnits="userSpaceOnUse">
<stop stop-color="#05A1E6"/>
<stop offset="0.874" stop-color="#0495D6"/>
<stop offset="1" stop-color="#0495D6"/>
</linearGradient>
<linearGradient id="paint13_linear_41_86" x1="505.772" y1="112.278" x2="494.192" y2="126.009" gradientUnits="userSpaceOnUse">
<stop stop-color="#38A7E4" stop-opacity="0.329"/>
<stop offset="0.962" stop-color="#0E88D3"/>
<stop offset="1" stop-color="#0E88D3"/>
</linearGradient>
<linearGradient id="paint14_linear_41_86" x1="502.956" y1="111.374" x2="494.584" y2="125.873" gradientUnits="userSpaceOnUse">
<stop stop-color="#168CD4"/>
<stop offset="0.5" stop-color="#1C87CC"/>
<stop offset="1" stop-color="#154B8D"/>
</linearGradient>
<linearGradient id="paint15_linear_41_86" x1="484.411" y1="98.7366" x2="497.194" y2="115.238" gradientUnits="userSpaceOnUse">
<stop stop-color="#97D6EE"/>
<stop offset="0.703" stop-color="#55C1EA"/>
<stop offset="1" stop-color="#55C1EA"/>
</linearGradient>
<linearGradient id="paint16_linear_41_86" x1="486.643" y1="105.395" x2="503.279" y2="107.121" gradientUnits="userSpaceOnUse">
<stop stop-color="#7ACCEC"/>
<stop offset="1" stop-color="#3FB7ED"/>
</linearGradient>
<linearGradient id="paint17_linear_41_86" x1="500.592" y1="111.035" x2="492.383" y2="125.254" gradientUnits="userSpaceOnUse">
<stop stop-color="#1DA7E7"/>
<stop offset="1" stop-color="#37ABE7" stop-opacity="0"/>
</linearGradient>
<clipPath id="clip0_41_86">
<rect width="47" height="47.68" fill="white" transform="translate(82.092 449.743) rotate(-112.342)"/>
</clipPath>
<clipPath id="clip1_41_86">
<rect width="44" height="44.6366" fill="white" transform="translate(82.3591 446.39) rotate(-112.342)"/>
</clipPath>
<clipPath id="clip2_41_86">
<rect width="44" height="44.6366" fill="white" transform="translate(132.95 290.174) rotate(-75)"/>
</clipPath>
<clipPath id="clip3_41_86">
<rect width="47" height="47.68" fill="white" transform="translate(616.733 287.56) rotate(85.0966)"/>
</clipPath>
<clipPath id="clip4_41_86">
<rect width="44" height="44.6366" fill="white" transform="translate(619.824 288.8) rotate(85.0966)"/>
</clipPath>
<clipPath id="clip5_41_86">
<rect width="44" height="44.6366" fill="white" transform="translate(512.873 412.08) rotate(75)"/>
</clipPath>
<clipPath id="clip6_41_86">
<rect width="47" height="47.68" fill="white" transform="translate(189.359 668.776) rotate(-157.925)"/>
</clipPath>
<clipPath id="clip7_41_86">
<rect width="44" height="44.6366" fill="white" transform="translate(188.541 666.803) rotate(-157.925)"/>
</clipPath>
<clipPath id="clip8_41_86">
<rect width="44" height="44.6366" fill="white" transform="translate(474.092 92.454) rotate(30)"/>
</clipPath>
<clipPath id="clip9_41_86">
<rect width="38" height="38.5498" fill="white" transform="translate(125.793 49.7242) rotate(-32.2908)"/>
</clipPath>
<clipPath id="clip10_41_86">
<rect width="44" height="44.6366" fill="white" transform="translate(551.221 631.589) rotate(151.56)"/>
</clipPath>
<clipPath id="clip11_41_86">
<rect width="42" height="42" fill="white" transform="translate(372.896 613.331) rotate(179.977)"/>
</clipPath>
</defs>
</svg>
